<?xml version="1.0" encoding="UTF-8"?>
<svg id="Crop_Marks" xmlns="http://www.w3.org/2000/svg" version="1.1" viewBox="0 0 459.48 200.55">
  <!-- Generator: Adobe Illustrator 29.0.1, SVG Export Plug-In . SVG Version: 2.1.0 Build 192)  -->
  <defs>
    <style>
      .st0 {
        fill: #231f20;
      }
    </style>
  </defs>
  <g>
    <path class="st0" d="M185.02,132.76c-8.6,0-17.29-2.48-24.1-7.5l7.39-7.29c5.11,3.48,10.47,5.69,16.96,5.69,5.11,0,8.2-1.67,8.2-4.42v-.13c0-2.61-1.95-3.95-11.44-5.96-11.44-2.41-18.83-5.02-18.83-14.32v-.13c0-8.5,8.28-14.12,19.88-14.12,8.28,0,15.34,2.14,21.1,5.96l-6.49,7.76c-5.03-2.88-9.98-4.62-14.77-4.62s-7.3,1.81-7.3,4.08v.13c0,3.08,2.43,4.08,12.25,6.16,11.52,2.47,18.02,5.89,18.02,14.05v.13c0,9.3-8.6,14.52-20.86,14.52h0Z"/>
    <path class="st0" d="M265.93,132.09l-5.19-10.51h-24.02l-5.19,10.51h-12.74l24.35-47.18h11.52l24.35,47.18h-13.08ZM248.72,97.29l-7.55,15.19h15.09l-7.55-15.19h0Z"/>
    <path class="st0" d="M335.72,132.09l-27.51-29.78v29.78h-12.34v-46.84h11.52l26.62,28.84v-28.84h12.33v46.84h-10.63.01Z"/>
    <path class="st0" d="M395.68,132.89c-17.53,0-30.11-10.77-30.11-24.09v-.13c0-13.32,12.74-24.22,30.27-24.22s30.11,10.77,30.11,24.09v.13c0,13.32-12.74,24.23-30.27,24.23h0ZM412.89,108.66c0-8.03-7.14-14.72-17.2-14.72s-17.04,6.56-17.04,14.59v.13c0,8.03,7.14,14.72,17.21,14.72s17.04-6.56,17.04-14.59v-.13h0Z"/>
  </g>
  <g>
    <g>
      <path d="M34.12,79.56l55.41,34.48-15.7,8.69c-2.93,1.53-6.42,1.5-9.32-.08l-30.38-18.14v-24.94h-.01Z"/>
      <path d="M34.15,75.33l53.99-32.01,47.16,29.35-13.34,8.4c-4,2.52-9.09,2.53-13.1.03l-7.19-4.48c-3.62-2.25-8.19-2.28-11.83-.07l-20.71,12.57c-3.98,2.42-8.98,2.39-12.93-.07l-22.04-13.72h-.01Z"/>
    </g>
    <g>
      <path d="M135.3,137.77l-55.41-34.48,15.7-8.69c2.93-1.53,6.42-1.5,9.32.08l30.38,18.14v24.94h.01Z"/>
      <path d="M135.27,142l-53.99,32.01-47.16-29.35,13.34-8.4c4-2.52,9.09-2.53,13.1-.03l7.19,4.48c3.62,2.25,8.19,2.28,11.83.07l20.71-12.57c3.98-2.42,8.98-2.39,12.93.07l22.04,13.72h0Z"/>
    </g>
  </g>
</svg>